<svg width="40" height="24" viewBox="0 0 40 24" fill="none" xmlns="http://www.w3.org/2000/svg">
<path d="M22.8949 7.27637H17.1055V16.7232H22.8949V7.27637Z" fill="#FF5F00"/>
<path d="M17.6393 11.9992C17.6385 11.0907 17.8507 10.1939 18.2597 9.37673C18.6687 8.55957 19.2638 7.84343 20 7.2825C19.0882 6.58687 17.9931 6.1543 16.8401 6.03423C15.687 5.91416 14.5223 6.11142 13.4793 6.60349C12.4362 7.09556 11.5568 7.86256 10.9415 8.81686C10.3263 9.77115 10 10.8742 10 12C10 13.1258 10.3263 14.2289 10.9415 15.1831C11.5568 16.1374 12.4362 16.9044 13.4793 17.3965C14.5223 17.8886 15.687 18.0858 16.8401 17.9658C17.9931 17.8457 19.0882 17.4131 20 16.7175C19.2636 16.1564 18.6683 15.44 18.2593 14.6225C17.8503 13.805 17.6383 12.908 17.6393 11.9992Z" fill="#EB001B"/>
<path d="M30 12.0008C30 13.1266 29.6737 14.2296 29.0583 15.1838C28.443 16.138 27.5636 16.9049 26.5205 17.3969C25.4774 17.8888 24.3127 18.0859 23.1597 17.9657C22.0066 17.8455 20.9117 17.4127 20 16.717C20.7358 16.1556 21.3307 15.4393 21.7398 14.6222C22.1489 13.8051 22.3614 12.9085 22.3614 12C22.3614 11.0915 22.1489 10.1949 21.7398 9.37778C21.3307 8.56067 20.7358 7.84441 20 7.28305C20.9117 6.58728 22.0066 6.15455 23.1597 6.03432C24.3127 5.91409 25.4774 6.11121 26.5205 6.60314C27.5636 7.09508 28.443 7.86199 29.0583 8.8162C29.6737 9.77042 30 10.8734 30 11.9992V12.0008Z" fill="#F79E1B"/>
</svg>
