<svg width="40" height="24" viewBox="0 0 40 24" fill="none" xmlns="http://www.w3.org/2000/svg">
<path d="M32 15.2615C31.397 15.2615 30.7896 15.2615 30.1777 15.2615C30.1107 14.9626 30.0392 14.6721 29.9811 14.3774C29.9588 14.257 29.9141 14.2072 29.7712 14.2114C29.0387 14.2197 28.3107 14.2197 27.5781 14.2114C27.4665 14.2114 27.4218 14.2446 27.3906 14.34C27.2878 14.6181 27.1806 14.8962 27.069 15.1743C27.0556 15.2117 27.002 15.2615 26.9662 15.2615C26.3097 15.2656 25.6486 15.2656 24.9697 15.2656C25.0948 14.9875 25.2109 14.726 25.327 14.4604C26.1757 12.576 27.0243 10.6957 27.8774 8.81132C28.065 8.40455 28.3419 8.23438 28.8154 8.23438C29.3424 8.23438 29.8739 8.23438 30.4144 8.23438C30.468 8.46266 30.5216 8.69095 30.5707 8.91509C30.9906 10.7746 31.406 12.6382 31.8258 14.4977C31.8794 14.7343 31.9419 14.9709 32 15.2117C32 15.2283 32 15.2449 32 15.2615ZM29.6149 12.7628C29.4228 11.8994 29.2308 11.0444 29.0387 10.1893C29.0298 10.1893 29.0208 10.1852 29.0164 10.1852C28.6814 11.0402 28.3509 11.8953 28.0114 12.7628C28.5563 12.7628 29.0789 12.7628 29.6149 12.7628Z" fill="white"/>
<path d="M24.0465 8C24.2925 8.04283 24.5386 8.07709 24.7801 8.13277C25.0034 8.17989 25.2176 8.24842 25.4545 8.31266C25.3361 8.83519 25.2221 9.34487 25.1082 9.8417C24.7984 9.75604 24.5022 9.65753 24.1969 9.59329C23.7776 9.50763 23.3493 9.47336 22.9346 9.58472C22.766 9.62755 22.5928 9.71321 22.4607 9.82029C22.2329 10.0045 22.2283 10.27 22.447 10.4627C22.5974 10.5955 22.7751 10.7069 22.9574 10.8054C23.3629 11.0367 23.7913 11.2337 24.1877 11.4821C24.6525 11.7733 24.9943 12.1674 25.0627 12.707C25.1902 13.6579 24.8166 14.4074 23.9645 14.9385C23.4313 15.2726 22.8252 15.4225 22.1964 15.4739C21.3169 15.551 20.4557 15.4568 19.6127 15.1998C19.558 15.1826 19.5033 15.1612 19.4486 15.1398C19.4304 15.1355 19.4167 15.1227 19.3939 15.1055C19.5124 14.583 19.6309 14.0605 19.7539 13.5208C19.8952 13.5808 20.0319 13.6365 20.1686 13.6921C20.8248 13.9406 21.5038 14.0562 22.2055 13.932C22.3878 13.8977 22.5746 13.8249 22.7295 13.7264C23.0668 13.5165 23.0987 13.1182 22.7933 12.8655C22.5928 12.7028 22.3513 12.5828 22.1189 12.4501C21.7589 12.2445 21.3807 12.0689 21.039 11.8419C20.6061 11.5463 20.2916 11.1566 20.2278 10.6341C20.1367 9.85455 20.4466 9.22066 21.0845 8.72811C21.6405 8.29981 22.2966 8.10708 22.9984 8.02998C23.0394 8.0257 23.0759 8.01285 23.1123 8.00428C23.4222 8 23.7366 8 24.0465 8Z" fill="white"/>
<path d="M17.2121 8.24305C17.1091 8.4712 17.0105 8.69104 16.9119 8.90674C15.971 10.9849 15.0301 13.063 14.0936 15.1412C14.0488 15.2407 13.995 15.2656 13.8875 15.2656C13.2916 15.2615 12.7002 15.2573 12.1042 15.2656C11.9788 15.2656 11.9384 15.2283 11.9071 15.1204C11.4053 13.3036 10.89 11.4909 10.3926 9.67412C10.303 9.34228 10.1193 9.11414 9.77432 8.9731C9.2232 8.74911 8.65417 8.59149 8.07169 8.4629C8.04929 8.45875 8.0224 8.45046 8 8.44631C8.00448 8.23476 8.00448 8.23476 8.21955 8.23476C9.25905 8.23476 10.2985 8.23476 11.338 8.23476C11.8309 8.23476 12.1849 8.50023 12.279 8.95236C12.5433 10.2299 12.7987 11.5117 13.0631 12.7893C13.0765 12.8432 13.0855 12.9013 13.1034 12.9801C13.1303 12.9344 13.1482 12.9054 13.1617 12.8764C13.8069 11.3665 14.4521 9.85663 15.0928 8.34261C15.1286 8.25965 15.169 8.23061 15.2675 8.23476C15.8724 8.23891 16.4728 8.23476 17.0777 8.23476C17.118 8.23476 17.1539 8.23891 17.2121 8.24305Z" fill="white"/>
<path d="M16.2424 15.2612C16.7917 12.9106 17.3365 10.5767 17.8858 8.23438C18.5532 8.23438 19.2114 8.23438 19.8788 8.23438C19.7971 8.59153 19.7153 8.94038 19.6336 9.28923C19.1797 11.2245 18.7302 13.1557 18.2808 15.0909C18.249 15.2238 18.1991 15.2695 18.0447 15.2654C17.4999 15.2571 16.9506 15.2612 16.4059 15.2612C16.3559 15.2612 16.306 15.2612 16.2424 15.2612Z" fill="white"/>
</svg>
