<svg width="24" height="24" viewBox="0 0 24 24" fill="none" xmlns="http://www.w3.org/2000/svg">
<path d="M4 21.4V15.475C4 15.1417 4.07917 14.825 4.2375 14.525C4.39583 14.225 4.61667 13.9833 4.9 13.8L6 13.075C6.11667 14.475 6.3 15.6667 6.55 16.65C6.8 17.6333 7.19167 18.725 7.725 19.925L4 21.4ZM9.225 19.4C8.64167 18.3 8.20833 17.1333 7.925 15.9C7.64167 14.6667 7.5 13.3917 7.5 12.075C7.5 9.99167 7.9125 8.02917 8.7375 6.1875C9.5625 4.34583 10.65 2.95 12 2C13.35 2.95 14.4375 4.34583 15.2625 6.1875C16.0875 8.02917 16.5 9.99167 16.5 12.075C16.5 13.375 16.3583 14.6375 16.075 15.8625C15.7917 17.0875 15.3583 18.2667 14.775 19.4H9.225ZM12 12.4C12.55 12.4 13.0208 12.2042 13.4125 11.8125C13.8042 11.4208 14 10.95 14 10.4C14 9.85 13.8042 9.37917 13.4125 8.9875C13.0208 8.59583 12.55 8.4 12 8.4C11.45 8.4 10.9792 8.59583 10.5875 8.9875C10.1958 9.37917 10 9.85 10 10.4C10 10.95 10.1958 11.4208 10.5875 11.8125C10.9792 12.2042 11.45 12.4 12 12.4ZM20 21.4L16.275 19.925C16.8083 18.725 17.2 17.6333 17.45 16.65C17.7 15.6667 17.8833 14.475 18 13.075L19.1 13.8C19.3833 13.9833 19.6042 14.225 19.7625 14.525C19.9208 14.825 20 15.1417 20 15.475V21.4Z" fill="#FEFDFB"/>
</svg>
